<svg width="60" height="60" viewBox="0 0 60 60" fill="none" xmlns="http://www.w3.org/2000/svg">
<rect width="60" height="60" rx="8" fill="#D3ECFF" fill-opacity="0.5"/>
<path d="M26.267 24.995H33.733C34.0631 24.995 34.3796 24.8633 34.6129 24.6288C34.8463 24.3943 34.9774 24.0763 34.9774 23.7447C34.9774 23.4131 34.8463 23.0951 34.6129 22.8606C34.3796 22.6261 34.0631 22.4944 33.733 22.4944H26.267C25.9369 22.4944 25.6204 22.6261 25.3871 22.8606C25.1537 23.0951 25.0226 23.4131 25.0226 23.7447C25.0226 24.0763 25.1537 24.3943 25.3871 24.6288C25.6204 24.8633 25.9369 24.995 26.267 24.995ZM26.8518 20.6189C26.8701 20.7714 26.9437 20.9118 27.0585 21.0133C27.1732 21.1147 27.3211 21.1702 27.474 21.1691H32.4887C32.6408 21.1675 32.7873 21.1111 32.9015 21.0102C33.0157 20.9092 33.09 20.7703 33.1109 20.6189C33.3845 19.2899 33.89 18.02 34.6041 16.868C34.67 16.7563 34.6972 16.6257 34.6814 16.4968C34.6657 16.3678 34.6078 16.2477 34.517 16.1553C34.4419 16.056 34.339 15.9815 34.2215 15.9414C34.104 15.9013 33.9772 15.8974 33.8575 15.9303L31.543 16.9305C31.5042 16.9494 31.4616 16.9591 31.4186 16.9591C31.3755 16.9591 31.3329 16.9494 31.2941 16.9305C31.2169 16.9017 31.1543 16.8432 31.1199 16.768L30.5724 15.3801C30.5246 15.2674 30.4448 15.1712 30.3431 15.1036C30.2413 15.036 30.122 15 30 15C29.878 15 29.7587 15.036 29.6569 15.1036C29.5552 15.1712 29.4754 15.2674 29.4276 15.3801L28.8801 16.768C28.8457 16.8432 28.7831 16.9017 28.7059 16.9305C28.6671 16.9494 28.6245 16.9591 28.5814 16.9591C28.5384 16.9591 28.4958 16.9494 28.457 16.9305L26.1425 15.9303C26.0239 15.882 25.8933 15.8718 25.7685 15.9009C25.6438 15.9299 25.5311 15.997 25.4457 16.0928C25.3548 16.1852 25.297 16.3053 25.2812 16.4342C25.2655 16.5632 25.2927 16.6937 25.3586 16.8055C26.0795 17.9766 26.5852 19.2682 26.8518 20.6189ZM34.2805 26.3954C34.1522 26.2963 33.9944 26.2435 33.8326 26.2453H26.1674C26.0056 26.2435 25.8478 26.2963 25.7195 26.3954C22.5464 28.896 19 33.1471 19 36.898C19 42.1868 21.9367 45 30 45C38.0633 45 41 42.1868 41 36.898C41 33.1471 37.4661 28.8335 34.2805 26.3954ZM31.2443 40.1613C31.1718 40.1756 31.1063 40.2144 31.0588 40.2712C31.0112 40.3281 30.9845 40.3996 30.983 40.4739V40.9365C30.983 41.1852 30.8847 41.4237 30.7097 41.5996C30.5347 41.7754 30.2973 41.8742 30.0498 41.8742C29.8023 41.8742 29.5649 41.7754 29.3899 41.5996C29.2148 41.4237 29.1165 41.1852 29.1165 40.9365V40.5364C29.1165 40.4535 29.0837 40.374 29.0254 40.3154C28.9671 40.2567 28.8879 40.2238 28.8054 40.2238H28.0713C27.8238 40.2238 27.5864 40.125 27.4114 39.9492C27.2363 39.7733 27.138 39.5348 27.138 39.2861C27.138 39.0374 27.2363 38.7989 27.4114 38.623C27.5864 38.4471 27.8238 38.3483 28.0713 38.3483H30.7466C30.9452 38.3552 31.1397 38.2906 31.2951 38.1661C31.4505 38.0416 31.5565 37.8654 31.594 37.6693C31.6315 37.4732 31.5981 37.2701 31.4998 37.0966C31.4015 36.9231 31.2447 36.7906 31.0577 36.7229L28.345 35.6352C27.7983 35.4294 27.3331 35.0504 27.0198 34.5553C26.7065 34.0603 26.5621 33.4763 26.6085 32.8915C26.6549 32.3067 26.8895 31.753 27.2769 31.3141C27.6643 30.8753 28.1834 30.575 28.7557 30.4589C28.8282 30.4446 28.8937 30.4058 28.9412 30.349C28.9888 30.2921 29.0155 30.2206 29.017 30.1463V29.6837C29.017 29.435 29.1153 29.1965 29.2903 29.0206C29.4653 28.8448 29.7027 28.746 29.9502 28.746C30.1977 28.746 30.4351 28.8448 30.6101 29.0206C30.7852 29.1965 30.8835 29.435 30.8835 29.6837V30.0838C30.8835 30.1667 30.9163 30.2462 30.9746 30.3048C31.0329 30.3634 31.1121 30.3964 31.1946 30.3964H31.9287C32.1762 30.3964 32.4136 30.4952 32.5886 30.671C32.7637 30.8469 32.862 31.0854 32.862 31.3341C32.862 31.5828 32.7637 31.8213 32.5886 31.9972C32.4136 32.173 32.1762 32.2718 31.9287 32.2718H29.3032C29.1046 32.265 28.91 32.3296 28.7547 32.4541C28.5993 32.5786 28.4933 32.7548 28.4558 32.9509C28.4182 33.1469 28.4516 33.35 28.55 33.5236C28.6483 33.6971 28.8051 33.8296 28.9921 33.8972L31.7048 34.985C32.2513 35.195 32.7148 35.5784 33.0247 36.0771C33.3347 36.5757 33.4742 37.1624 33.4221 37.7481C33.37 38.3337 33.1292 38.8862 32.7361 39.3217C32.3431 39.7573 31.8193 40.0521 31.2443 40.1613Z" fill="#1A75BC"/>
</svg>
