<svg width="37" height="30" viewBox="0 0 37 30" fill="none" xmlns="http://www.w3.org/2000/svg">
<path d="M0 28.3333V25.3333C0 24.4167 0.236111 23.5556 0.708333 22.75C1.18056 21.9444 1.83333 21.3333 2.66667 20.9167C4.08333 20.1944 5.68056 19.5833 7.45833 19.0833C9.23611 18.5833 11.1944 18.3333 13.3333 18.3333C15.4722 18.3333 17.4306 18.5833 19.2083 19.0833C20.9861 19.5833 22.5833 20.1944 24 20.9167C24.8333 21.3333 25.4861 21.9444 25.9583 22.75C26.4306 23.5556 26.6667 24.4167 26.6667 25.3333V28.3333C26.6667 28.8056 26.5067 29.2017 26.1867 29.5217C25.8667 29.8417 25.4711 30.0011 25 30H1.66667C1.19444 30 0.798889 29.84 0.48 29.52C0.161111 29.2 0.00111111 28.8044 0 28.3333ZM13.3333 16.6667C11.5 16.6667 9.93056 16.0139 8.625 14.7083C7.31945 13.4028 6.66667 11.8333 6.66667 10H6.25C6 10 5.79889 9.92389 5.64667 9.77167C5.49445 9.61944 5.41778 9.41778 5.41667 9.16667C5.41556 8.91556 5.49222 8.71389 5.64667 8.56167C5.80111 8.40944 6.00222 8.33333 6.25 8.33333H6.66667C6.66667 7.08333 6.97222 5.95833 7.58333 4.95833C8.19445 3.95833 9 3.16667 10 2.58333V4.16667C10 4.41667 10.0767 4.61833 10.23 4.77167C10.3833 4.925 10.5844 5.00111 10.8333 5C11.0822 4.99889 11.2839 4.92278 11.4383 4.77167C11.5928 4.62056 11.6689 4.41889 11.6667 4.16667V1.91667C11.9167 1.83333 12.1806 1.77111 12.4583 1.73C12.7361 1.68889 13.0278 1.66778 13.3333 1.66667C13.6389 1.66556 13.9306 1.68667 14.2083 1.73C14.4861 1.77333 14.75 1.83556 15 1.91667V4.16667C15 4.41667 15.0767 4.61833 15.23 4.77167C15.3833 4.925 15.5844 5.00111 15.8333 5C16.0822 4.99889 16.2839 4.92278 16.4383 4.77167C16.5928 4.62056 16.6689 4.41889 16.6667 4.16667V2.58333C17.6667 3.16667 18.4722 3.95833 19.0833 4.95833C19.6944 5.95833 20 7.08333 20 8.33333H20.4167C20.6667 8.33333 20.8683 8.41 21.0217 8.56333C21.175 8.71667 21.2511 8.91778 21.25 9.16667C21.2489 9.41556 21.1728 9.61722 21.0217 9.77167C20.8706 9.92611 20.6689 10.0022 20.4167 10H20C20 11.8333 19.3472 13.4028 18.0417 14.7083C16.7361 16.0139 15.1667 16.6667 13.3333 16.6667ZM13.3333 13.3333C14.25 13.3333 15.035 13.0072 15.6883 12.355C16.3417 11.7028 16.6678 10.9178 16.6667 10H10C10 10.9167 10.3267 11.7017 10.98 12.355C11.6333 13.0083 12.4178 13.3344 13.3333 13.3333ZM25.7083 19.3333L25.5833 18.75C25.4167 18.6944 25.2572 18.6322 25.105 18.5633C24.9528 18.4944 24.8067 18.39 24.6667 18.25L24.1667 18.4167C23.9722 18.4722 23.785 18.4722 23.605 18.4167C23.425 18.3611 23.2789 18.2361 23.1667 18.0417L23 17.75C22.8889 17.5833 22.8544 17.4028 22.8967 17.2083C22.9389 17.0139 23.0289 16.8472 23.1667 16.7083L23.5833 16.3333V15.3333L23.1667 14.9583C23.0278 14.8194 22.9378 14.6528 22.8967 14.4583C22.8556 14.2639 22.89 14.0833 23 13.9167L23.1667 13.625C23.2778 13.4306 23.4239 13.3056 23.605 13.25C23.7861 13.1944 23.9733 13.1944 24.1667 13.25L24.6667 13.4167C24.7778 13.3056 24.9167 13.2083 25.0833 13.125C25.25 13.0417 25.4167 12.9722 25.5833 12.9167L25.7083 12.3333C25.7639 12.1389 25.8611 11.9789 26 11.8533C26.1389 11.7278 26.3056 11.6656 26.5 11.6667H26.8333C27.0278 11.6667 27.1944 11.7294 27.3333 11.855C27.4722 11.9806 27.5694 12.14 27.625 12.3333L27.75 12.9167C27.9167 12.9722 28.0833 13.0417 28.25 13.125C28.4167 13.2083 28.5556 13.3056 28.6667 13.4167L29.1667 13.25C29.3611 13.1944 29.5489 13.1944 29.73 13.25C29.9111 13.3056 30.0567 13.4306 30.1667 13.625L30.3333 13.9167C30.4444 14.0833 30.4794 14.2639 30.4383 14.4583C30.3972 14.6528 30.3067 14.8194 30.1667 14.9583L29.75 15.3333V16.3333L30.1667 16.7083C30.3056 16.8472 30.3961 17.0139 30.4383 17.2083C30.4806 17.4028 30.4456 17.5833 30.3333 17.75L30.1667 18.0417C30.0556 18.2361 29.91 18.3611 29.73 18.4167C29.55 18.4722 29.3622 18.4722 29.1667 18.4167L28.6667 18.25C28.5278 18.3889 28.3822 18.4933 28.23 18.5633C28.0778 18.6333 27.9178 18.6956 27.75 18.75L27.625 19.3333C27.5694 19.5278 27.4722 19.6878 27.3333 19.8133C27.1944 19.9389 27.0278 20.0011 26.8333 20H26.5C26.3056 20 26.1389 19.9378 26 19.8133C25.8611 19.6889 25.7639 19.5289 25.7083 19.3333ZM26.6667 17.0833C27 17.0833 27.2917 16.9583 27.5417 16.7083C27.7917 16.4583 27.9167 16.1667 27.9167 15.8333C27.9167 15.5 27.7917 15.2083 27.5417 14.9583C27.2917 14.7083 27 14.5833 26.6667 14.5833C26.3333 14.5833 26.0417 14.7083 25.7917 14.9583C25.5417 15.2083 25.4167 15.5 25.4167 15.8333C25.4167 16.1667 25.5417 16.4583 25.7917 16.7083C26.0417 16.9583 26.3333 17.0833 26.6667 17.0833ZM29.5 10.75L29.3333 9.91667C29.0833 9.83333 28.8539 9.72944 28.645 9.605C28.4361 9.48055 28.2489 9.33444 28.0833 9.16667L27.2083 9.45833C26.9583 9.54167 26.7083 9.535 26.4583 9.43833C26.2083 9.34167 26.0139 9.18167 25.875 8.95833L25.625 8.54167C25.4861 8.31944 25.4372 8.07667 25.4783 7.81333C25.5194 7.55 25.6517 7.32056 25.875 7.125L26.5833 6.5C26.5278 6.36111 26.5 6.25 26.5 6.16667V5.5C26.5 5.41667 26.5278 5.30556 26.5833 5.16667L25.875 4.54167C25.6528 4.34722 25.5206 4.11778 25.4783 3.85333C25.4361 3.58889 25.485 3.34611 25.625 3.125L25.875 2.70833C26.0139 2.48611 26.2083 2.32611 26.4583 2.22833C26.7083 2.13056 26.9583 2.12389 27.2083 2.20833L28.0833 2.5C28.25 2.33333 28.4378 2.18778 28.6467 2.06333C28.8556 1.93889 29.0844 1.83444 29.3333 1.75L29.5 0.916667C29.5556 0.638889 29.6878 0.416667 29.8967 0.25C30.1056 0.0833335 30.3483 0 30.625 0H31.0417C31.3194 0 31.5628 0.0833335 31.7717 0.25C31.9806 0.416667 32.1122 0.638889 32.1667 0.916667L32.3333 1.75C32.5833 1.83333 32.8128 1.93778 33.0217 2.06333C33.2306 2.18889 33.4178 2.33444 33.5833 2.5L34.4583 2.20833C34.7083 2.125 34.9583 2.13222 35.2083 2.23C35.4583 2.32778 35.6528 2.48722 35.7917 2.70833L36.0417 3.125C36.1806 3.34722 36.2294 3.59056 36.1883 3.855C36.1472 4.11944 36.015 4.34833 35.7917 4.54167L35.0833 5.16667C35.1389 5.30556 35.1667 5.41667 35.1667 5.5V6.16667C35.1667 6.25 35.1389 6.36111 35.0833 6.5L35.7917 7.125C36.0139 7.31944 36.1461 7.54889 36.1883 7.81333C36.2306 8.07778 36.1817 8.32056 36.0417 8.54167L35.7917 8.95833C35.6528 9.18056 35.4583 9.34056 35.2083 9.43833C34.9583 9.53611 34.7083 9.54278 34.4583 9.45833L33.5833 9.16667C33.4167 9.33333 33.2295 9.47889 33.0217 9.60333C32.8139 9.72778 32.5844 9.83222 32.3333 9.91667L32.1667 10.75C32.1111 11.0278 31.9789 11.25 31.77 11.4167C31.5611 11.5833 31.3183 11.6667 31.0417 11.6667H30.625C30.3472 11.6667 30.1044 11.5833 29.8967 11.4167C29.6889 11.25 29.5567 11.0278 29.5 10.75ZM30.8333 7.91667C31.4167 7.91667 31.91 7.71556 32.3133 7.31333C32.7167 6.91111 32.9178 6.41778 32.9167 5.83333C32.9156 5.24889 32.7139 4.75556 32.3117 4.35333C31.9094 3.95111 31.4167 3.75 30.8333 3.75C30.25 3.75 29.7567 3.95167 29.3533 4.355C28.95 4.75833 28.7489 5.25111 28.75 5.83333C28.7511 6.41556 28.9528 6.90889 29.355 7.31333C29.7572 7.71778 30.25 7.91889 30.8333 7.91667Z" fill="#007581"/>
</svg>
