<svg width="17" height="18" viewBox="0 0 17 18" fill="none" xmlns="http://www.w3.org/2000/svg">
<path d="M11 16.8335V10.1668C11 9.94582 10.9122 9.73385 10.7559 9.57757C10.5996 9.42129 10.3877 9.3335 10.1667 9.3335H6.83333C6.61232 9.3335 6.40036 9.42129 6.24408 9.57757C6.0878 9.73385 6 9.94582 6 10.1668V16.8335" stroke="#516677" stroke-width="2" stroke-linecap="round" stroke-linejoin="round"/>
<path d="M1 7.66707C0.999942 7.42462 1.05278 7.18509 1.15482 6.96516C1.25687 6.74524 1.40566 6.55023 1.59083 6.39373L7.42417 1.39373C7.72499 1.13949 8.10613 1 8.5 1C8.89387 1 9.27501 1.13949 9.57583 1.39373L15.4092 6.39373C15.5943 6.55023 15.7431 6.74524 15.8452 6.96516C15.9472 7.18509 16.0001 7.42462 16 7.66707V15.1671C16 15.6091 15.8244 16.033 15.5118 16.3456C15.1993 16.6581 14.7754 16.8337 14.3333 16.8337H2.66667C2.22464 16.8337 1.80072 16.6581 1.48816 16.3456C1.17559 16.033 1 15.6091 1 15.1671V7.66707Z" stroke="#516677" stroke-width="2" stroke-linecap="round" stroke-linejoin="round"/>
</svg>
