<svg width="31" height="32" viewBox="0 0 31 32" fill="none" xmlns="http://www.w3.org/2000/svg">
<path d="M28.2226 9.97596L22.2226 12.776L18.3393 8.89263V6.5593L22.2226 2.67597L28.2226 5.47596C28.8559 5.77596 29.5893 5.49263 29.8893 4.87596C30.1893 4.24263 29.9059 3.5093 29.2893 3.2093L22.7559 0.159299C22.4463 0.0123696 22.0985 -0.0344816 21.761 0.0252534C21.4235 0.0849885 21.113 0.248345 20.8726 0.492633L17.9726 3.39263C17.8225 3.18822 17.6269 3.02156 17.4013 2.90585C17.1757 2.79013 16.9262 2.72855 16.6726 2.72597C15.7559 2.72597 15.0059 3.47596 15.0059 4.39263V6.0593H9.70594C8.90594 3.82596 6.60594 2.3093 4.00594 2.82596C2.05595 3.2093 0.455946 4.8093 0.0892796 6.7593C-0.327387 8.99263 0.755946 10.9926 2.47261 12.026L6.80594 26.0593H4.17261C2.78928 26.0593 1.67261 27.176 1.67261 28.5593C1.67261 29.9426 2.78928 31.0593 4.17261 31.0593H20.8393C22.2226 31.0593 23.3393 29.9426 23.3393 28.5593C23.3393 27.176 22.2226 26.0593 20.8393 26.0593H17.3059L9.02261 10.676C9.30594 10.276 9.53927 9.85929 9.70594 9.39263H15.0059V11.0593C15.0059 11.976 15.7559 12.726 16.6726 12.726C17.2059 12.726 17.6726 12.4593 17.9726 12.0593L20.8726 14.9593C21.3726 15.4593 22.1226 15.5926 22.7559 15.2926L29.2893 12.2426C29.9226 11.9426 30.1893 11.2093 29.8893 10.576C29.7473 10.2758 29.4922 10.0442 29.1799 9.93173C28.8675 9.81928 28.5233 9.83518 28.2226 9.97596ZM5.00594 9.39263C4.08928 9.39263 3.33928 8.64263 3.33928 7.72596C3.33928 6.8093 4.08928 6.0593 5.00594 6.0593C5.92261 6.0593 6.67261 6.8093 6.67261 7.72596C6.67261 8.64263 5.92261 9.39263 5.00594 9.39263Z" fill="#1A75BC"/>
</svg>
