<svg width="60" height="60" viewBox="0 0 60 60" fill="none" xmlns="http://www.w3.org/2000/svg">
<rect width="60" height="60" rx="8" fill="#FFA133"/>
<path d="M30 36.6667H30.0167M36.6667 36.6667H36.6833M23.3333 36.6667H23.35M15 41.6667C15 42.5507 15.3512 43.3986 15.9763 44.0237C16.6014 44.6488 17.4493 45 18.3333 45H41.6667C42.5507 45 43.3986 44.6488 44.0237 44.0237C44.6488 43.3986 45 42.5507 45 41.6667V24.1667C45.0002 24.0172 44.9601 23.8704 44.884 23.7417C44.8079 23.613 44.6986 23.5071 44.5676 23.4352C44.4365 23.3633 44.2885 23.328 44.1391 23.3329C43.9897 23.3379 43.8444 23.3829 43.7183 23.4633L36.2817 28.2033C36.1556 28.2838 36.0103 28.3288 35.8609 28.3338C35.7115 28.3387 35.5635 28.3034 35.4324 28.2314C35.3014 28.1595 35.1921 28.0537 35.116 27.925C35.0399 27.7963 34.9998 27.6495 35 27.5V24.1667C35.0002 24.0172 34.9601 23.8704 34.884 23.7417C34.8079 23.613 34.6986 23.5071 34.5676 23.4352C34.4365 23.3633 34.2885 23.328 34.1391 23.3329C33.9897 23.3379 33.8444 23.3829 33.7183 23.4633L26.2833 28.2033C26.1573 28.2842 26.0118 28.3296 25.8621 28.3348C25.7124 28.34 25.5642 28.3047 25.4328 28.2327C25.3015 28.1608 25.192 28.0547 25.1158 27.9258C25.0397 27.7968 24.9996 27.6498 25 27.5V18.3333C25 17.4493 24.6488 16.6014 24.0237 15.9763C23.3986 15.3512 22.5507 15 21.6667 15H18.3333C17.4493 15 16.6014 15.3512 15.9763 15.9763C15.3512 16.6014 15 17.4493 15 18.3333V41.6667Z" stroke="white" stroke-width="2" stroke-linecap="round" stroke-linejoin="round"/>
</svg>
