<svg width="60" height="60" viewBox="0 0 60 60" fill="none" xmlns="http://www.w3.org/2000/svg">
<rect width="60" height="60" rx="8" fill="#00963E"/>
<path d="M28.6053 45C27.9435 45 27.3739 44.775 26.8965 44.325C26.419 43.875 26.1308 43.325 26.0318 42.675L25.7009 40.2C25.3823 40.075 25.0823 39.925 24.8009 39.75C24.5195 39.575 24.2435 39.3875 23.973 39.1875L21.6935 40.1625C21.0808 40.4375 20.4681 40.4625 19.8553 40.2375C19.2426 40.0125 18.7646 39.6125 18.4215 39.0375L16.6935 35.9625C16.3504 35.3875 16.2524 34.775 16.3994 34.125C16.5465 33.475 16.8774 32.9375 17.3921 32.5125L19.3406 31.0125C19.3161 30.8375 19.3038 30.6685 19.3038 30.5055V29.493C19.3038 29.331 19.3161 29.1625 19.3406 28.9875L17.3921 27.4875C16.8774 27.0625 16.5465 26.525 16.3994 25.875C16.2524 25.225 16.3504 24.6125 16.6935 24.0375L18.4215 20.9625C18.7646 20.3875 19.2426 19.9875 19.8553 19.7625C20.4681 19.5375 21.0808 19.5625 21.6935 19.8375L23.973 20.8125C24.2426 20.6125 24.5244 20.425 24.8185 20.25C25.1127 20.075 25.4068 19.925 25.7009 19.8L26.0318 17.325C26.1298 16.675 26.4181 16.125 26.8965 15.675C27.3749 15.225 27.9445 15 28.6053 15H32.0612C32.723 15 33.2931 15.225 33.7715 15.675C34.2499 16.125 34.5377 16.675 34.6347 17.325L34.9656 19.8C35.2842 19.925 35.5847 20.075 35.8671 20.25C36.1494 20.425 36.4249 20.6125 36.6935 20.8125L38.973 19.8375C39.5857 19.5625 40.1984 19.5375 40.8112 19.7625C41.4239 19.9875 41.9019 20.3875 42.245 20.9625L43.973 24.0375C44.3161 24.6125 44.4141 25.225 44.2671 25.875C44.12 26.525 43.7891 27.0625 43.2744 27.4875L41.3259 28.9875C41.3504 29.1625 41.3627 29.3315 41.3627 29.4945V30.5055C41.3627 30.6685 41.3382 30.8375 41.2891 31.0125L43.2377 32.5125C43.7524 32.9375 44.0833 33.475 44.2303 34.125C44.3774 34.775 44.2793 35.3875 43.9362 35.9625L42.1715 39.0375C41.8283 39.6125 41.3504 40.0125 40.7377 40.2375C40.1249 40.4625 39.5122 40.4375 38.8994 40.1625L36.6935 39.1875C36.4239 39.3875 36.1421 39.575 35.848 39.75C35.5538 39.925 35.2597 40.075 34.9656 40.2L34.6347 42.675C34.5367 43.325 34.2489 43.875 33.7715 44.325C33.294 44.775 32.7239 45 32.0612 45H28.6053ZM28.8627 42H31.7671L32.2818 38.025C33.0416 37.825 33.7465 37.5315 34.3965 37.1445C35.0465 36.7575 35.6406 36.2885 36.1788 35.7375L39.8185 37.275L41.2524 34.725L38.0906 32.2875C38.2132 31.9375 38.2989 31.569 38.348 31.182C38.397 30.795 38.4215 30.401 38.4215 30C38.4215 29.599 38.397 29.2055 38.348 28.8195C38.2989 28.4335 38.2132 28.0645 38.0906 27.7125L41.2524 25.275L39.8185 22.725L36.1788 24.3C35.6396 23.725 35.0455 23.244 34.3965 22.857C33.7475 22.47 33.0426 22.176 32.2818 21.975L31.8038 18H28.8994L28.3847 21.975C27.6249 22.175 26.9205 22.469 26.2715 22.857C25.6225 23.245 25.0279 23.7135 24.4877 24.2625L20.848 22.725L19.4141 25.275L22.5759 27.675C22.4533 28.05 22.3676 28.425 22.3185 28.8C22.2695 29.175 22.245 29.575 22.245 30C22.245 30.4 22.2695 30.7875 22.3185 31.1625C22.3676 31.5375 22.4533 31.9125 22.5759 32.2875L19.4141 34.725L20.848 37.275L24.4877 35.7C25.0269 36.275 25.6215 36.7565 26.2715 37.1445C26.9215 37.5325 27.6259 37.826 28.3847 38.025L28.8627 42ZM30.4068 35.25C31.8283 35.25 33.0416 34.7375 34.0465 33.7125C35.0514 32.6875 35.5538 31.45 35.5538 30C35.5538 28.55 35.0514 27.3125 34.0465 26.2875C33.0416 25.2625 31.8283 24.75 30.4068 24.75C28.9607 24.75 27.7416 25.2625 26.7494 26.2875C25.7573 27.3125 25.2607 28.55 25.2597 30C25.2587 31.45 25.7553 32.6875 26.7494 33.7125C27.7435 34.7375 28.9627 35.25 30.4068 35.25Z" fill="white" fill-opacity="0.9"/>
</svg>
