<svg width="38" height="29" viewBox="0 0 38 29" fill="none" xmlns="http://www.w3.org/2000/svg">
<path d="M17.5 16.25C18.8261 16.25 20.0979 16.7768 21.0355 17.7145C21.9732 18.6521 22.5 19.9239 22.5 21.25C22.5 23.6625 21.02 25.575 18.9725 26.825C16.925 28.07 14.1875 28.75 11.25 28.75C8.3125 28.75 5.575 28.07 3.5275 26.825C1.4775 25.575 0 23.6625 0 21.25C0 19.9239 0.526784 18.6521 1.46447 17.7145C2.40215 16.7768 3.67392 16.25 5 16.25H17.5ZM34.1325 16.27C35.0559 16.3647 35.9114 16.7985 36.5335 17.4875C37.1555 18.1765 37.4999 19.0717 37.5 20C37.5 21.9275 36.325 23.5225 34.745 24.575C33.1575 25.635 31.0325 26.25 28.75 26.25C27 26.25 25.35 25.885 23.9575 25.2425C24.6025 24.085 24.9975 22.7525 24.9975 21.25C24.9975 19.3525 24.2875 17.625 23.125 16.3025C23.3283 16.2692 23.5367 16.2517 23.75 16.25H33.75L34.1325 16.27ZM11.25 0C13.0734 0 14.822 0.724328 16.1114 2.01364C17.4007 3.30295 18.125 5.05164 18.125 6.875C18.125 8.69836 17.4007 10.447 16.1114 11.7364C14.822 13.0257 13.0734 13.75 11.25 13.75C9.42664 13.75 7.67795 13.0257 6.38864 11.7364C5.09933 10.447 4.375 8.69836 4.375 6.875C4.375 5.05164 5.09933 3.30295 6.38864 2.01364C7.67795 0.724328 9.42664 0 11.25 0ZM28.755 2.4925C29.5042 2.47671 30.2489 2.61063 30.9457 2.88641C31.6424 3.16219 32.2771 3.57427 32.8125 4.09851C33.3479 4.62276 33.7733 5.2486 34.0637 5.93937C34.354 6.63014 34.5036 7.37192 34.5036 8.12125C34.5036 8.87058 34.354 9.61236 34.0637 10.3031C33.7733 10.9939 33.3479 11.6197 32.8125 12.144C32.2771 12.6682 31.6424 13.0803 30.9457 13.3561C30.2489 13.6319 29.5042 13.7658 28.755 13.75C27.2827 13.719 25.8812 13.1123 24.8509 12.0601C23.8206 11.0079 23.2436 9.59387 23.2436 8.12125C23.2436 6.64863 23.8206 5.23462 24.8509 4.1824C25.8812 3.13019 27.2827 2.52353 28.755 2.4925Z" fill="#00963E"/>
</svg>
