<svg width="60" height="60" viewBox="0 0 60 60" fill="none" xmlns="http://www.w3.org/2000/svg">
<rect width="60" height="60" rx="8" fill="#FFEEDB"/>
<path d="M36.0591 16H23.8672C22.1813 16 21.3384 16 20.712 16.4318C20.0843 16.8651 19.8367 17.6166 19.3415 19.1213L15.9402 29.437C15.0781 32.0543 14.6463 33.3629 15.3566 34.2604C16.067 35.1579 17.5333 35.1579 20.4674 35.1579H32.6593C34.3452 35.1579 35.1867 35.1579 35.8145 34.7261C36.4423 34.2928 36.6899 33.5412 37.185 32.0366L40.5863 21.7208C41.4484 19.1036 41.8802 17.7949 41.1699 16.8975C40.4596 16 38.9933 16 36.0591 16Z" stroke="#FFA133" stroke-width="1.5" stroke-linecap="round" stroke-linejoin="round"/>
<path d="M44.4736 21.158L39.9906 34.735C39.3363 36.7141 39.0092 37.7044 38.1824 38.2718C37.3572 38.8421 36.2445 38.8421 34.0222 38.8421H17.9471M18.6839 22.6316H40.0525M37.842 28.5264H16.4734M28.263 39.579V44M28.263 44H31.2104M28.263 44H25.3156" stroke="#FFA133" stroke-width="1.5" stroke-linecap="round" stroke-linejoin="round"/>
<path d="M34.8949 16H27.5264L21.6316 35.1579H29.0001L34.8949 16Z" stroke="#FFA133" stroke-width="1.5" stroke-linecap="round" stroke-linejoin="round"/>
</svg>
